# WaveFront *.obj file (generated by Autodesk ATF)

mtllib 6424bfe5-4fe5-42d0-ae03-fd58f0cc9d89.mtl

g Body1

v -0.989998 0.074434 0.000000
v -1.108393 0.002765 0.000000
v -1.108393 0.002765 0.001000
v -0.989998 0.074434 0.001000
v -0.992508 0.211148 0.000000
v -0.992508 0.211148 0.001000
v -0.898689 0.267701 0.000000
v -0.898689 0.267701 0.001000
v -0.777783 0.200401 0.000000
v -0.777783 0.200401 0.001000
v -0.656985 0.271555 0.000000
v -0.656985 0.271555 0.001000
v -0.561599 0.218459 0.000000
v -0.561599 0.218459 0.001000
v -0.561599 0.081670 0.000000
v -0.561599 0.081670 0.001000
v -0.438868 0.013354 0.000000
v -0.438868 0.013354 0.001000
v -0.436550 -0.094473 0.000000
v -0.436550 -0.094473 0.001000
v -0.555685 -0.166685 0.000000
v -0.555685 -0.166685 0.001000
v -0.552716 -0.304802 0.000000
v -0.552716 -0.304802 0.001000
v -0.648503 -0.362862 0.000000
v -0.648503 -0.362862 0.001000
v -0.769015 -0.295992 0.000000
v -0.769015 -0.295992 0.001000
v -0.888384 -0.366363 0.000000
v -0.888384 -0.366363 0.001000
v -0.984413 -0.313078 0.000000
v -0.984413 -0.313078 0.001000
v -0.986469 -0.174724 0.000000
v -0.986469 -0.174724 0.001000
v -1.106773 -0.106313 0.000000
v -1.106773 -0.106313 0.001000
vt -0.000000 0.000000 0.000000
vt 0.351529 0.000000 0.000000
vt -0.000000 0.002540 0.000000
vt 0.351529 0.002540 0.000000
vt 0.000000 0.000000 0.000000
vt 0.347311 0.000000 0.000000
vt 0.000000 0.002540 0.000000
vt 0.347311 0.002540 0.000000
vt -0.000000 0.000000 0.000000
vt 0.278248 0.000000 0.000000
vt -0.000000 0.002540 0.000000
vt 0.278248 0.002540 0.000000
vt 0.000000 0.000000 0.000000
vt 0.351472 0.000000 0.000000
vt 0.000000 0.002540 0.000000
vt 0.351472 0.002540 0.000000
vt -0.000000 0.000000 0.000000
vt 0.356098 0.000000 0.000000
vt -0.000000 0.002540 0.000000
vt 0.356098 0.002540 0.000000
vt 0.000000 0.000000 0.000000
vt 0.277288 0.000000 0.000000
vt 0.000000 0.002540 0.000000
vt 0.277288 0.002540 0.000000
vt 0.000000 0.000000 0.000000
vt 0.347443 0.000000 0.000000
vt 0.000000 0.002540 0.000000
vt 0.347443 0.002540 0.000000
vt 0.000000 0.000000 0.000000
vt 0.356776 0.000000 0.000000
vt 0.000000 0.002540 0.000000
vt 0.356776 0.002540 0.000000
vt -0.000000 0.000000 0.000000
vt 0.273945 0.000000 0.000000
vt -0.000000 0.002540 0.000000
vt 0.273945 0.002540 0.000000
vt 0.000000 0.000000 0.000000
vt 0.353849 0.000000 0.000000
vt 0.000000 0.002540 0.000000
vt 0.353849 0.002540 0.000000
vt 0.000000 0.000000 0.000000
vt 0.350900 0.000000 0.000000
vt 0.000000 0.002540 0.000000
vt 0.350900 0.002540 0.000000
vt 0.000000 0.000000 0.000000
vt 0.284503 0.000000 0.000000
vt 0.000000 0.002540 0.000000
vt 0.284503 0.002540 0.000000
vt 0.000000 0.000000 0.000000
vt 0.350068 0.000000 0.000000
vt 0.000000 0.002540 0.000000
vt 0.350068 0.002540 0.000000
vt 0.000000 0.000000 0.000000
vt 0.351961 0.000000 0.000000
vt 0.000000 0.002540 0.000000
vt 0.351961 0.002540 0.000000
vt 0.000000 0.000000 0.000000
vt 0.278948 0.000000 0.000000
vt 0.000000 0.002540 0.000000
vt 0.278948 0.002540 0.000000
vt 0.000000 0.000000 0.000000
vt 0.351457 0.000000 0.000000
vt 0.000000 0.002540 0.000000
vt 0.351457 0.002540 0.000000
vt 0.000000 0.000000 0.000000
vt 0.351522 0.000000 0.000000
vt 0.000000 0.002540 0.000000
vt 0.351522 0.002540 0.000000
vt 0.000000 0.000000 0.000000
vt 0.277090 0.000000 0.000000
vt 0.000000 0.002540 0.000000
vt 0.277090 0.002540 0.000000
vt -0.853241 0.127430 0.000000
vt -0.849124 -0.149630 0.000000
vt -0.552517 0.309469 0.000000
vt -0.543552 -0.323394 0.000000
vt 0.535618 0.327849 0.000000
vt 0.550639 -0.302973 0.000000
vt 0.847354 0.154326 0.000000
vt 0.853241 -0.119555 0.000000
vt 0.008779 -0.631413 0.000000
vt -0.538331 -0.674812 0.000000
vt -0.294417 -0.810155 0.000000
vt 0.314882 -0.801263 0.000000
vt 0.558180 -0.653791 0.000000
vt -0.013491 0.629425 0.000000
vt 0.535618 0.675292 0.000000
vt 0.293335 0.810155 0.000000
vt -0.320592 0.800368 0.000000
vt -0.558893 0.656721 0.000000
vt 0.853241 0.127430 0.000000
vt 0.552517 0.309469 0.000000
vt 0.849124 -0.149630 0.000000
vt 0.543552 -0.323394 0.000000
vt -0.535618 0.327849 0.000000
vt -0.550639 -0.302973 0.000000
vt -0.847354 0.154326 0.000000
vt -0.853241 -0.119555 0.000000
vt 0.013491 0.629425 0.000000
vt 0.558893 0.656721 0.000000
vt 0.320592 0.800368 0.000000
vt -0.293335 0.810155 0.000000
vt -0.535618 0.675292 0.000000
vt -0.008779 -0.631413 0.000000
vt -0.558180 -0.653791 0.000000
vt -0.314882 -0.801263 0.000000
vt 0.294417 -0.810155 0.000000
vt 0.538331 -0.674812 0.000000
vn -1.315336 2.172899 0.000000
vn -1.315336 2.172899 0.000000
vn -1.315336 2.172899 0.000000
vn -1.315336 2.172899 0.000000
vn -2.539572 -0.046626 0.000000
vn -2.539572 -0.046626 0.000000
vn -2.539572 -0.046626 0.000000
vn -2.539572 -0.046626 0.000000
vn -1.311289 2.175344 0.000000
vn -1.311289 2.175344 0.000000
vn -1.311289 2.175344 0.000000
vn -1.311289 2.175344 0.000000
vn 1.235362 2.219342 0.000000
vn 1.235362 2.219342 0.000000
vn 1.235362 2.219342 0.000000
vn 1.235362 2.219342 0.000000
vn -1.289122 2.188553 0.000000
vn -1.289122 2.188553 0.000000
vn -1.289122 2.188553 0.000000
vn -1.289122 2.188553 0.000000
vn 1.235362 2.219342 0.000000
vn 1.235362 2.219342 0.000000
vn 1.235362 2.219342 0.000000
vn 1.235362 2.219342 0.000000
vn 2.540000 0.000000 0.000000
vn 2.540000 0.000000 0.000000
vn 2.540000 0.000000 0.000000
vn 2.540000 0.000000 0.000000
vn 1.235362 2.219342 0.000000
vn 1.235362 2.219342 0.000000
vn 1.235362 2.219342 0.000000
vn 1.235362 2.219342 0.000000
vn 2.539413 0.054584 0.000000
vn 2.539413 0.054584 0.000000
vn 2.539413 0.054584 0.000000
vn 2.539413 0.054584 0.000000
vn 1.316604 -2.172131 0.000000
vn 1.316604 -2.172131 0.000000
vn 1.316604 -2.172131 0.000000
vn 1.316604 -2.172131 0.000000
vn 2.539413 0.054584 0.000000
vn 2.539413 0.054584 0.000000
vn 2.539413 0.054584 0.000000
vn 2.539413 0.054584 0.000000
vn 1.316604 -2.172131 0.000000
vn 1.316604 -2.172131 0.000000
vn 1.316604 -2.172131 0.000000
vn 1.316604 -2.172131 0.000000
vn -1.232386 -2.220996 0.000000
vn -1.232386 -2.220996 0.000000
vn -1.232386 -2.220996 0.000000
vn -1.232386 -2.220996 0.000000
vn 1.289928 -2.188078 0.000000
vn 1.289928 -2.188078 0.000000
vn 1.289928 -2.188078 0.000000
vn 1.289928 -2.188078 0.000000
vn -1.232386 -2.220996 0.000000
vn -1.232386 -2.220996 0.000000
vn -1.232386 -2.220996 0.000000
vn -1.232386 -2.220996 0.000000
vn -2.539720 -0.037737 0.000000
vn -2.539720 -0.037737 0.000000
vn -2.539720 -0.037737 0.000000
vn -2.539720 -0.037737 0.000000
vn -1.255567 -2.207974 0.000000
vn -1.255567 -2.207974 0.000000
vn -1.255567 -2.207974 0.000000
vn -1.255567 -2.207974 0.000000
vn -2.539720 -0.037737 0.000000
vn -2.539720 -0.037737 0.000000
vn -2.539720 -0.037737 0.000000
vn -2.539720 -0.037737 0.000000
vn 0.000000 0.000000 2.540000
vn 0.000000 0.000000 2.540000
vn 0.000000 0.000000 2.540000
vn 0.000000 0.000000 2.540000
vn 0.000000 0.000000 2.540000
vn 0.000000 0.000000 2.540000
vn 0.000000 0.000000 2.540000
vn 0.000000 0.000000 2.540000
vn 0.000000 0.000000 2.540000
vn 0.000000 0.000000 2.540000
vn 0.000000 0.000000 2.540000
vn 0.000000 0.000000 2.540000
vn 0.000000 0.000000 2.540000
vn 0.000000 0.000000 2.540000
vn 0.000000 0.000000 2.540000
vn 0.000000 0.000000 2.540000
vn 0.000000 0.000000 2.540000
vn 0.000000 0.000000 2.540000
vn -0.000000 0.000000 -2.540000
vn -0.000000 0.000000 -2.540000
vn -0.000000 0.000000 -2.540000
vn -0.000000 0.000000 -2.540000
vn -0.000000 0.000000 -2.540000
vn -0.000000 0.000000 -2.540000
vn -0.000000 0.000000 -2.540000
vn -0.000000 0.000000 -2.540000
vn -0.000000 0.000000 -2.540000
vn -0.000000 0.000000 -2.540000
vn -0.000000 0.000000 -2.540000
vn -0.000000 0.000000 -2.540000
vn -0.000000 0.000000 -2.540000
vn -0.000000 0.000000 -2.540000
vn -0.000000 0.000000 -2.540000
vn -0.000000 0.000000 -2.540000
vn -0.000000 0.000000 -2.540000
vn -0.000000 0.000000 -2.540000
usemtl Steel_-_Satin
f 1/1/1 2/2/2 4/3/3
f 4/3/3 2/2/2 3/4/4
f 5/5/5 1/6/6 6/7/7
f 6/7/7 1/6/6 4/8/8
f 7/9/9 5/10/10 8/11/11
f 8/11/11 5/10/10 6/12/12
f 9/13/13 7/14/14 10/15/15
f 10/15/15 7/14/14 8/16/16
f 11/17/17 9/18/18 12/19/19
f 12/19/19 9/18/18 10/20/20
f 13/21/21 11/22/22 14/23/23
f 14/23/23 11/22/22 12/24/24
f 15/25/25 13/26/26 16/27/27
f 16/27/27 13/26/26 14/28/28
f 17/29/29 15/30/30 18/31/31
f 18/31/31 15/30/30 16/32/32
f 19/33/33 17/34/34 20/35/35
f 20/35/35 17/34/34 18/36/36
f 21/37/37 19/38/38 22/39/39
f 22/39/39 19/38/38 20/40/40
f 23/41/41 21/42/42 24/43/43
f 24/43/43 21/42/42 22/44/44
f 25/45/45 23/46/46 26/47/47
f 26/47/47 23/46/46 24/48/48
f 27/49/49 25/50/50 28/51/51
f 28/51/51 25/50/50 26/52/52
f 29/53/53 27/54/54 30/55/55
f 30/55/55 27/54/54 28/56/56
f 31/57/57 29/58/58 32/59/59
f 32/59/59 29/58/58 30/60/60
f 33/61/61 31/62/62 34/63/63
f 34/63/63 31/62/62 32/64/64
f 35/65/65 33/66/66 36/67/67
f 36/67/67 33/66/66 34/68/68
f 2/69/69 35/70/70 3/71/71
f 3/71/71 35/70/70 36/72/72
f 3/73/73 36/74/74 4/75/75
f 4/75/75 36/74/74 34/76/76
f 4/75/75 34/76/76 16/77/77
f 16/77/77 34/76/76 22/78/78
f 16/77/77 22/78/78 18/79/79
f 18/79/79 22/78/78 20/80/80
f 22/78/78 34/76/76 28/81/81
f 28/81/81 34/76/76 32/82/82
f 28/81/81 32/82/82 30/83/83
f 26/84/84 24/85/85 28/81/81
f 28/81/81 24/85/85 22/78/78
f 4/75/75 16/77/77 10/86/86
f 10/86/86 16/77/77 14/87/87
f 10/86/86 14/87/87 12/88/88
f 8/89/89 6/90/90 10/86/86
f 10/86/86 6/90/90 4/75/75
f 2/91/91 1/92/92 35/93/93
f 35/93/93 1/92/92 33/94/94
f 33/94/94 1/92/92 15/95/95
f 33/94/94 15/95/95 21/96/96
f 21/96/96 15/95/95 17/97/97
f 21/96/96 17/97/97 19/98/98
f 15/95/95 1/92/92 9/99/99
f 9/99/99 1/92/92 5/100/100
f 9/99/99 5/100/100 7/101/101
f 11/102/102 13/103/103 9/99/99
f 9/99/99 13/103/103 15/95/95
f 33/94/94 21/96/96 27/104/104
f 27/104/104 21/96/96 23/105/105
f 27/104/104 23/105/105 25/106/106
f 29/107/107 31/108/108 27/104/104
f 27/104/104 31/108/108 33/94/94
# 36 vertices
# 108 texture params
# 108 normals
# 68 facets

# 1 groups
